<mxfile host="app.diagrams.net" modified="2022-03-02T02:26:45.969Z" agent="5.0 (Windows NT 10.0; Win64; x64) AppleWebKit/537.36 (KHTML, like Gecko) Chrome/98.0.4758.102 Safari/537.36 Edg/98.0.1108.62" etag="yjxMvKLWWeGOfVS3n6Up" version="16.6.4" type="github">
  <diagram id="pWYNXqBe8x7Hirdf-r9Q" name="Page-1">
    <mxGraphModel dx="1422" dy="794" grid="1" gridSize="10" guides="1" tooltips="1" connect="1" arrows="1" fold="1" page="1" pageScale="1" pageWidth="827" pageHeight="1169" math="0" shadow="0">
      <root>
        <object label="" id="0">
          <mxCell />
        </object>
        <mxCell id="1" parent="0" />
        <mxCell id="X19Q8VQpx3kqBuvHNOcR-4" value="&lt;b&gt;Google &lt;/b&gt;Cloud Platform" style="fillColor=#F6F6F6;strokeColor=none;shadow=0;gradientColor=none;fontSize=14;align=left;spacing=10;fontColor=#717171;9E9E9E;verticalAlign=top;spacingTop=-4;fontStyle=0;spacingLeft=40;html=1;" parent="1" vertex="1">
          <mxGeometry x="77" y="30" width="720" height="600" as="geometry" />
        </mxCell>
        <mxCell id="X19Q8VQpx3kqBuvHNOcR-5" value="" style="shape=mxgraph.gcp2.google_cloud_platform;fillColor=#F6F6F6;strokeColor=none;shadow=0;gradientColor=none;" parent="X19Q8VQpx3kqBuvHNOcR-4" vertex="1">
          <mxGeometry width="23" height="20" relative="1" as="geometry">
            <mxPoint x="20" y="10" as="offset" />
          </mxGeometry>
        </mxCell>
        <mxCell id="X19Q8VQpx3kqBuvHNOcR-37" value="Project ID : vm-test" style="sketch=0;points=[[0,0,0],[0.25,0,0],[0.5,0,0],[0.75,0,0],[1,0,0],[1,0.25,0],[1,0.5,0],[1,0.75,0],[1,1,0],[0.75,1,0],[0.5,1,0],[0.25,1,0],[0,1,0],[0,0.75,0],[0,0.5,0],[0,0.25,0]];rounded=1;absoluteArcSize=1;arcSize=2;html=1;strokeColor=none;gradientColor=none;shadow=0;dashed=0;fontSize=12;fontColor=#9E9E9E;align=left;verticalAlign=top;spacing=10;spacingTop=-4;fillColor=#F6F6F6;" parent="X19Q8VQpx3kqBuvHNOcR-4" vertex="1">
          <mxGeometry x="20" y="40" width="680" height="540" as="geometry" />
        </mxCell>
        <mxCell id="X19Q8VQpx3kqBuvHNOcR-38" value="Logical Grouping of Services / Instances" style="sketch=0;points=[[0,0,0],[0.25,0,0],[0.5,0,0],[0.75,0,0],[1,0,0],[1,0.25,0],[1,0.5,0],[1,0.75,0],[1,1,0],[0.75,1,0],[0.5,1,0],[0.25,1,0],[0,1,0],[0,0.75,0],[0,0.5,0],[0,0.25,0]];rounded=1;absoluteArcSize=1;arcSize=2;html=1;strokeColor=none;gradientColor=none;shadow=0;dashed=0;fontSize=12;fontColor=#9E9E9E;align=left;verticalAlign=top;spacing=10;spacingTop=-4;fillColor=#E3F2FD;" parent="X19Q8VQpx3kqBuvHNOcR-37" vertex="1">
          <mxGeometry width="250" height="180" relative="1" as="geometry">
            <mxPoint x="750" y="120" as="offset" />
          </mxGeometry>
        </mxCell>
        <mxCell id="X19Q8VQpx3kqBuvHNOcR-39" value="Zone" style="sketch=0;points=[[0,0,0],[0.25,0,0],[0.5,0,0],[0.75,0,0],[1,0,0],[1,0.25,0],[1,0.5,0],[1,0.75,0],[1,1,0],[0.75,1,0],[0.5,1,0],[0.25,1,0],[0,1,0],[0,0.75,0],[0,0.5,0],[0,0.25,0]];rounded=1;absoluteArcSize=1;arcSize=2;html=1;strokeColor=none;gradientColor=none;shadow=0;dashed=0;fontSize=12;fontColor=#9E9E9E;align=left;verticalAlign=top;spacing=10;spacingTop=-4;fillColor=#FFF3E0;" parent="X19Q8VQpx3kqBuvHNOcR-38" vertex="1">
          <mxGeometry width="230" height="120" relative="1" as="geometry">
            <mxPoint x="10" y="50" as="offset" />
          </mxGeometry>
        </mxCell>
        <mxCell id="X19Q8VQpx3kqBuvHNOcR-103" value="Region : europe-west1" style="sketch=0;points=[[0,0,0],[0.25,0,0],[0.5,0,0],[0.75,0,0],[1,0,0],[1,0.25,0],[1,0.5,0],[1,0.75,0],[1,1,0],[0.75,1,0],[0.5,1,0],[0.25,1,0],[0,1,0],[0,0.75,0],[0,0.5,0],[0,0.25,0]];rounded=1;absoluteArcSize=1;arcSize=2;html=1;strokeColor=none;gradientColor=none;shadow=0;dashed=0;fontSize=12;fontColor=#9E9E9E;align=left;verticalAlign=top;spacing=10;spacingTop=-4;fillColor=#ECEFF1;" parent="X19Q8VQpx3kqBuvHNOcR-37" vertex="1">
          <mxGeometry width="660" height="490" relative="1" as="geometry">
            <mxPoint x="10" y="40" as="offset" />
          </mxGeometry>
        </mxCell>
        <mxCell id="X19Q8VQpx3kqBuvHNOcR-40" value="Public subnet" style="sketch=0;points=[[0,0,0],[0.25,0,0],[0.5,0,0],[0.75,0,0],[1,0,0],[1,0.25,0],[1,0.5,0],[1,0.75,0],[1,1,0],[0.75,1,0],[0.5,1,0],[0.25,1,0],[0,1,0],[0,0.75,0],[0,0.5,0],[0,0.25,0]];rounded=1;absoluteArcSize=1;arcSize=2;html=1;strokeColor=none;gradientColor=none;shadow=0;dashed=0;fontSize=12;fontColor=#9E9E9E;align=left;verticalAlign=top;spacing=10;spacingTop=-4;fillColor=#EDE7F6;" parent="X19Q8VQpx3kqBuvHNOcR-37" vertex="1">
          <mxGeometry width="260" height="300" relative="1" as="geometry">
            <mxPoint x="57" y="90" as="offset" />
          </mxGeometry>
        </mxCell>
        <mxCell id="X19Q8VQpx3kqBuvHNOcR-127" value="Subnetwork us-east1" style="sketch=0;points=[[0,0,0],[0.25,0,0],[0.5,0,0],[0.75,0,0],[1,0,0],[1,0.25,0],[1,0.5,0],[1,0.75,0],[1,1,0],[0.75,1,0],[0.5,1,0],[0.25,1,0],[0,1,0],[0,0.75,0],[0,0.5,0],[0,0.25,0]];rounded=1;absoluteArcSize=1;arcSize=2;html=1;strokeColor=none;gradientColor=none;shadow=0;dashed=0;fontSize=12;fontColor=#9E9E9E;align=left;verticalAlign=top;spacing=10;spacingTop=-4;fillColor=#EDE7F6;" parent="X19Q8VQpx3kqBuvHNOcR-37" vertex="1">
          <mxGeometry x="380" y="90" width="260" height="200" as="geometry" />
        </mxCell>
        <mxCell id="X19Q8VQpx3kqBuvHNOcR-128" value="Subnetwork europe-west1" style="sketch=0;points=[[0,0,0],[0.25,0,0],[0.5,0,0],[0.75,0,0],[1,0,0],[1,0.25,0],[1,0.5,0],[1,0.75,0],[1,1,0],[0.75,1,0],[0.5,1,0],[0.25,1,0],[0,1,0],[0,0.75,0],[0,0.5,0],[0,0.25,0]];rounded=1;absoluteArcSize=1;arcSize=2;html=1;strokeColor=none;gradientColor=none;shadow=0;dashed=0;fontSize=12;fontColor=#9E9E9E;align=left;verticalAlign=top;spacing=10;spacingTop=-4;fillColor=#EDE7F6;" parent="X19Q8VQpx3kqBuvHNOcR-37" vertex="1">
          <mxGeometry x="380" y="329.25" width="260" height="200" as="geometry" />
        </mxCell>
        <mxCell id="X19Q8VQpx3kqBuvHNOcR-133" value="Cloud Load&#xa;Balancing" style="sketch=0;html=1;fillColor=#5184F3;strokeColor=none;verticalAlign=top;labelPosition=center;verticalLabelPosition=bottom;align=center;spacingTop=-6;fontSize=11;fontStyle=1;fontColor=#999999;shape=mxgraph.gcp2.hexIcon;prIcon=cloud_load_balancing" parent="X19Q8VQpx3kqBuvHNOcR-37" vertex="1">
          <mxGeometry x="20" y="210" width="66" height="58.5" as="geometry" />
        </mxCell>
        <mxCell id="X19Q8VQpx3kqBuvHNOcR-137" value="" style="aspect=fixed;perimeter=ellipsePerimeter;html=1;align=center;shadow=0;dashed=0;spacingTop=3;image;image=img/lib/active_directory/internet_cloud.svg;" parent="X19Q8VQpx3kqBuvHNOcR-37" vertex="1">
          <mxGeometry x="193.97" width="92.06" height="58" as="geometry" />
        </mxCell>
        <mxCell id="X19Q8VQpx3kqBuvHNOcR-139" value="" style="endArrow=classic;html=1;rounded=0;exitX=0.5;exitY=1;exitDx=0;exitDy=0;" parent="X19Q8VQpx3kqBuvHNOcR-37" source="X19Q8VQpx3kqBuvHNOcR-137" target="X19Q8VQpx3kqBuvHNOcR-140" edge="1">
          <mxGeometry width="50" height="50" relative="1" as="geometry">
            <mxPoint x="360" y="360" as="sourcePoint" />
            <mxPoint x="410" y="310" as="targetPoint" />
          </mxGeometry>
        </mxCell>
        <mxCell id="X19Q8VQpx3kqBuvHNOcR-140" value="Anycast External IP" style="rounded=1;whiteSpace=wrap;html=1;" parent="X19Q8VQpx3kqBuvHNOcR-37" vertex="1">
          <mxGeometry x="170" y="130" width="140" height="30" as="geometry" />
        </mxCell>
        <mxCell id="X19Q8VQpx3kqBuvHNOcR-141" value="Global Forwarding Rule" style="rounded=1;whiteSpace=wrap;html=1;" parent="X19Q8VQpx3kqBuvHNOcR-37" vertex="1">
          <mxGeometry x="170" y="180" width="140" height="30" as="geometry" />
        </mxCell>
        <mxCell id="X19Q8VQpx3kqBuvHNOcR-142" value="Target Proxy" style="rounded=1;whiteSpace=wrap;html=1;" parent="X19Q8VQpx3kqBuvHNOcR-37" vertex="1">
          <mxGeometry x="170" y="230" width="140" height="30" as="geometry" />
        </mxCell>
        <mxCell id="X19Q8VQpx3kqBuvHNOcR-143" value="UrI Map" style="rounded=1;whiteSpace=wrap;html=1;" parent="X19Q8VQpx3kqBuvHNOcR-37" vertex="1">
          <mxGeometry x="170" y="290" width="140" height="30" as="geometry" />
        </mxCell>
        <mxCell id="X19Q8VQpx3kqBuvHNOcR-144" value="Backend Service" style="rounded=1;whiteSpace=wrap;html=1;" parent="X19Q8VQpx3kqBuvHNOcR-37" vertex="1">
          <mxGeometry x="170" y="340" width="140" height="30" as="geometry" />
        </mxCell>
        <mxCell id="X19Q8VQpx3kqBuvHNOcR-145" value="Health&lt;br&gt;Check" style="rounded=1;whiteSpace=wrap;html=1;" parent="X19Q8VQpx3kqBuvHNOcR-37" vertex="1">
          <mxGeometry x="60" y="340" width="90" height="30" as="geometry" />
        </mxCell>
        <mxCell id="X19Q8VQpx3kqBuvHNOcR-146" value="" style="endArrow=none;html=1;rounded=0;entryX=1;entryY=0.5;entryDx=0;entryDy=0;exitX=0;exitY=0.5;exitDx=0;exitDy=0;" parent="X19Q8VQpx3kqBuvHNOcR-37" source="X19Q8VQpx3kqBuvHNOcR-144" target="X19Q8VQpx3kqBuvHNOcR-145" edge="1">
          <mxGeometry width="50" height="50" relative="1" as="geometry">
            <mxPoint x="360" y="360" as="sourcePoint" />
            <mxPoint x="410" y="310" as="targetPoint" />
          </mxGeometry>
        </mxCell>
        <mxCell id="SRtRHM4l6uf5ir-c9pAR-4" value="" style="endArrow=classic;html=1;rounded=0;exitX=0.5;exitY=1;exitDx=0;exitDy=0;" edge="1" parent="X19Q8VQpx3kqBuvHNOcR-37" source="X19Q8VQpx3kqBuvHNOcR-142" target="X19Q8VQpx3kqBuvHNOcR-143">
          <mxGeometry width="50" height="50" relative="1" as="geometry">
            <mxPoint x="250" y="220" as="sourcePoint" />
            <mxPoint x="250" y="240" as="targetPoint" />
          </mxGeometry>
        </mxCell>
        <mxCell id="SRtRHM4l6uf5ir-c9pAR-5" value="" style="endArrow=classic;html=1;rounded=0;exitX=0.5;exitY=1;exitDx=0;exitDy=0;" edge="1" parent="X19Q8VQpx3kqBuvHNOcR-37" source="X19Q8VQpx3kqBuvHNOcR-143" target="X19Q8VQpx3kqBuvHNOcR-144">
          <mxGeometry width="50" height="50" relative="1" as="geometry">
            <mxPoint x="250" y="270" as="sourcePoint" />
            <mxPoint x="250" y="300" as="targetPoint" />
          </mxGeometry>
        </mxCell>
        <mxCell id="SRtRHM4l6uf5ir-c9pAR-6" value="Cloud&#xa;Firewall Rules" style="sketch=0;html=1;fillColor=#5184F3;strokeColor=none;verticalAlign=top;labelPosition=center;verticalLabelPosition=bottom;align=center;spacingTop=-6;fontSize=11;fontStyle=1;fontColor=#999999;shape=mxgraph.gcp2.hexIcon;prIcon=cloud_firewall_rules" vertex="1" parent="X19Q8VQpx3kqBuvHNOcR-37">
          <mxGeometry x="207" y="400" width="66" height="58.5" as="geometry" />
        </mxCell>
        <mxCell id="SRtRHM4l6uf5ir-c9pAR-7" value="" style="endArrow=classic;html=1;rounded=0;exitX=0.5;exitY=1;exitDx=0;exitDy=0;" edge="1" parent="X19Q8VQpx3kqBuvHNOcR-37">
          <mxGeometry width="50" height="50" relative="1" as="geometry">
            <mxPoint x="239.5" y="370" as="sourcePoint" />
            <mxPoint x="240" y="410" as="targetPoint" />
          </mxGeometry>
        </mxCell>
        <mxCell id="SRtRHM4l6uf5ir-c9pAR-10" value="" style="edgeStyle=orthogonalEdgeStyle;fontSize=12;html=1;endArrow=blockThin;endFill=1;rounded=0;strokeWidth=2;endSize=4;startSize=4;dashed=0;strokeColor=#9E9E9E;exitX=0.825;exitY=0.5;exitDx=0;exitDy=0;exitPerimeter=0;entryX=0;entryY=0.5;entryDx=0;entryDy=0;entryPerimeter=0;" edge="1" parent="X19Q8VQpx3kqBuvHNOcR-37" source="SRtRHM4l6uf5ir-c9pAR-6" target="X19Q8VQpx3kqBuvHNOcR-127">
          <mxGeometry width="100" relative="1" as="geometry">
            <mxPoint x="570" y="460" as="sourcePoint" />
            <mxPoint x="670" y="460" as="targetPoint" />
          </mxGeometry>
        </mxCell>
        <mxCell id="SRtRHM4l6uf5ir-c9pAR-11" value="" style="edgeStyle=orthogonalEdgeStyle;fontSize=12;html=1;endArrow=blockThin;endFill=1;rounded=0;strokeWidth=2;endSize=4;startSize=4;dashed=0;strokeColor=#9E9E9E;entryX=0;entryY=0.5;entryDx=0;entryDy=0;entryPerimeter=0;exitX=0.825;exitY=0.5;exitDx=0;exitDy=0;exitPerimeter=0;" edge="1" parent="X19Q8VQpx3kqBuvHNOcR-37" source="SRtRHM4l6uf5ir-c9pAR-6" target="X19Q8VQpx3kqBuvHNOcR-128">
          <mxGeometry width="100" relative="1" as="geometry">
            <mxPoint x="270" y="430" as="sourcePoint" />
            <mxPoint x="670" y="460" as="targetPoint" />
            <Array as="points">
              <mxPoint x="380" y="429" />
            </Array>
          </mxGeometry>
        </mxCell>
        <mxCell id="SRtRHM4l6uf5ir-c9pAR-15" value="" style="sketch=0;html=1;fillColor=#5184F3;strokeColor=none;verticalAlign=top;labelPosition=center;verticalLabelPosition=bottom;align=center;spacingTop=-6;fontSize=11;fontStyle=1;fontColor=#999999;shape=mxgraph.gcp2.hexIcon;prIcon=cloud_network" vertex="1" parent="X19Q8VQpx3kqBuvHNOcR-37">
          <mxGeometry x="574" y="90" width="66" height="58.5" as="geometry" />
        </mxCell>
        <mxCell id="SRtRHM4l6uf5ir-c9pAR-16" value="" style="sketch=0;html=1;fillColor=#5184F3;strokeColor=none;verticalAlign=top;labelPosition=center;verticalLabelPosition=bottom;align=center;spacingTop=-6;fontSize=11;fontStyle=1;fontColor=#999999;shape=mxgraph.gcp2.hexIcon;prIcon=cloud_network" vertex="1" parent="X19Q8VQpx3kqBuvHNOcR-37">
          <mxGeometry x="574" y="330" width="66" height="58.5" as="geometry" />
        </mxCell>
        <mxCell id="SRtRHM4l6uf5ir-c9pAR-17" value="Backend Instance Group&lt;br&gt;us-east1-mig" style="sketch=0;points=[[0,0,0],[0.25,0,0],[0.5,0,0],[0.75,0,0],[1,0,0],[1,0.25,0],[1,0.5,0],[1,0.75,0],[1,1,0],[0.75,1,0],[0.5,1,0],[0.25,1,0],[0,1,0],[0,0.75,0],[0,0.5,0],[0,0.25,0]];rounded=1;absoluteArcSize=1;arcSize=2;html=1;strokeColor=none;gradientColor=none;shadow=0;dashed=0;fontSize=12;fontColor=#9E9E9E;align=left;verticalAlign=top;spacing=10;spacingTop=-4;fillColor=#FFF8E1;" vertex="1" parent="X19Q8VQpx3kqBuvHNOcR-37">
          <mxGeometry x="390" y="148.5" width="240" height="130" as="geometry" />
        </mxCell>
        <mxCell id="SRtRHM4l6uf5ir-c9pAR-18" value="Backend Instance Group&lt;br&gt;europe-west1-mig" style="sketch=0;points=[[0,0,0],[0.25,0,0],[0.5,0,0],[0.75,0,0],[1,0,0],[1,0.25,0],[1,0.5,0],[1,0.75,0],[1,1,0],[0.75,1,0],[0.5,1,0],[0.25,1,0],[0,1,0],[0,0.75,0],[0,0.5,0],[0,0.25,0]];rounded=1;absoluteArcSize=1;arcSize=2;html=1;strokeColor=none;gradientColor=none;shadow=0;dashed=0;fontSize=12;fontColor=#9E9E9E;align=left;verticalAlign=top;spacing=10;spacingTop=-4;fillColor=#FFF8E1;" vertex="1" parent="X19Q8VQpx3kqBuvHNOcR-37">
          <mxGeometry x="390" y="390" width="240" height="130" as="geometry" />
        </mxCell>
        <mxCell id="SRtRHM4l6uf5ir-c9pAR-19" value="" style="sketch=0;html=1;fillColor=#5184F3;strokeColor=none;verticalAlign=top;labelPosition=center;verticalLabelPosition=bottom;align=center;spacingTop=-6;fontSize=11;fontStyle=1;fontColor=#999999;shape=mxgraph.gcp2.hexIcon;prIcon=compute_engine" vertex="1" parent="X19Q8VQpx3kqBuvHNOcR-37">
          <mxGeometry x="433" y="200" width="66" height="58.5" as="geometry" />
        </mxCell>
        <mxCell id="SRtRHM4l6uf5ir-c9pAR-20" value="" style="sketch=0;html=1;fillColor=#5184F3;strokeColor=none;verticalAlign=top;labelPosition=center;verticalLabelPosition=bottom;align=center;spacingTop=-6;fontSize=11;fontStyle=1;fontColor=#999999;shape=mxgraph.gcp2.hexIcon;prIcon=compute_engine" vertex="1" parent="X19Q8VQpx3kqBuvHNOcR-37">
          <mxGeometry x="476" y="200" width="66" height="58.5" as="geometry" />
        </mxCell>
        <mxCell id="SRtRHM4l6uf5ir-c9pAR-21" value="" style="sketch=0;html=1;fillColor=#5184F3;strokeColor=none;verticalAlign=top;labelPosition=center;verticalLabelPosition=bottom;align=center;spacingTop=-6;fontSize=11;fontStyle=1;fontColor=#999999;shape=mxgraph.gcp2.hexIcon;prIcon=compute_engine" vertex="1" parent="X19Q8VQpx3kqBuvHNOcR-37">
          <mxGeometry x="519" y="200.5" width="66" height="58.5" as="geometry" />
        </mxCell>
        <mxCell id="SRtRHM4l6uf5ir-c9pAR-28" value="" style="sketch=0;html=1;fillColor=#5184F3;strokeColor=none;verticalAlign=top;labelPosition=center;verticalLabelPosition=bottom;align=center;spacingTop=-6;fontSize=11;fontStyle=1;fontColor=#999999;shape=mxgraph.gcp2.hexIcon;prIcon=compute_engine" vertex="1" parent="X19Q8VQpx3kqBuvHNOcR-37">
          <mxGeometry x="519" y="440.5" width="66" height="58.5" as="geometry" />
        </mxCell>
        <mxCell id="SRtRHM4l6uf5ir-c9pAR-29" value="" style="sketch=0;html=1;fillColor=#5184F3;strokeColor=none;verticalAlign=top;labelPosition=center;verticalLabelPosition=bottom;align=center;spacingTop=-6;fontSize=11;fontStyle=1;fontColor=#999999;shape=mxgraph.gcp2.hexIcon;prIcon=compute_engine" vertex="1" parent="X19Q8VQpx3kqBuvHNOcR-37">
          <mxGeometry x="433" y="440" width="66" height="58.5" as="geometry" />
        </mxCell>
        <mxCell id="SRtRHM4l6uf5ir-c9pAR-30" value="" style="sketch=0;html=1;fillColor=#5184F3;strokeColor=none;verticalAlign=top;labelPosition=center;verticalLabelPosition=bottom;align=center;spacingTop=-6;fontSize=11;fontStyle=1;fontColor=#999999;shape=mxgraph.gcp2.hexIcon;prIcon=compute_engine" vertex="1" parent="X19Q8VQpx3kqBuvHNOcR-37">
          <mxGeometry x="476" y="440" width="66" height="58.5" as="geometry" />
        </mxCell>
        <mxCell id="SRtRHM4l6uf5ir-c9pAR-14" value="Virtual&#xa;Private Cloud" style="sketch=0;html=1;fillColor=#5184F3;strokeColor=none;verticalAlign=top;labelPosition=center;verticalLabelPosition=bottom;align=center;spacingTop=-6;fontSize=11;fontStyle=1;fontColor=#999999;shape=mxgraph.gcp2.hexIcon;prIcon=virtual_private_cloud" vertex="1" parent="X19Q8VQpx3kqBuvHNOcR-4">
          <mxGeometry x="654" width="66" height="58.5" as="geometry" />
        </mxCell>
        <mxCell id="SRtRHM4l6uf5ir-c9pAR-1" value="" style="endArrow=classic;html=1;rounded=0;exitX=0.5;exitY=1;exitDx=0;exitDy=0;" edge="1" parent="1" source="X19Q8VQpx3kqBuvHNOcR-140">
          <mxGeometry width="50" height="50" relative="1" as="geometry">
            <mxPoint x="350" y="190" as="sourcePoint" />
            <mxPoint x="340" y="250" as="targetPoint" />
          </mxGeometry>
        </mxCell>
        <mxCell id="SRtRHM4l6uf5ir-c9pAR-3" value="" style="endArrow=classic;html=1;rounded=0;exitX=0.5;exitY=1;exitDx=0;exitDy=0;" edge="1" parent="1" source="X19Q8VQpx3kqBuvHNOcR-141">
          <mxGeometry width="50" height="50" relative="1" as="geometry">
            <mxPoint x="350" y="240" as="sourcePoint" />
            <mxPoint x="340" y="300" as="targetPoint" />
          </mxGeometry>
        </mxCell>
      </root>
    </mxGraphModel>
  </diagram>
</mxfile>
